<svg width="51" height="32" viewBox="0 0 51 32" fill="none" xmlns="http://www.w3.org/2000/svg">
<path d="M36.5986 15.4063H14.3624C12.9068 15.4063 11.8677 14.1186 12.2969 12.8499L15.6417 2.98351C15.9222 2.15688 16.7594 1.59375 17.7072 1.59375H33.2538C34.2015 1.59375 35.0388 2.15688 35.3193 2.98351L38.6641 12.8499C39.0933 14.1186 38.0542 15.4063 36.5986 15.4063Z" fill="#CF91A4"/>
<path d="M24.0355 30.2814C25.3764 30.2814 26.3327 28.9979 25.9459 27.7165L22.8561 17.8501C22.6118 17.0405 21.8404 16.4689 20.967 16.4689H6.66142C5.78804 16.4689 5.01453 17.0405 4.77228 17.8501L1.68039 27.7165C1.29364 29 2.24989 30.2814 3.59077 30.2814H24.0355Z" fill="white"/>
<path d="M25.502 29.6439C25.842 30.0264 26.3733 30.2814 26.947 30.2814H47.3897C48.7284 30.2814 49.6847 29.0064 49.3022 27.7102L46.2209 17.8501C45.9659 17.0426 45.2009 16.4689 44.3296 16.4689H30.0071C29.1358 16.4689 28.3708 17.0426 28.1158 17.8501L25.502 26.2439V29.6439Z" fill="white"/>
<path d="M16.5467 12.8499L19.8915 2.98351C20.172 2.15688 21.0092 1.59375 21.957 1.59375H17.707C16.7592 1.59375 15.9219 2.15688 15.6414 2.98351L12.2967 12.8499C11.8653 14.1186 12.9066 15.4063 14.3622 15.4063H18.6122C17.1566 15.4063 16.1174 14.1186 16.5467 12.8499Z" fill="#9E2349"/>
<path d="M5.93041 27.7165L9.02018 17.8501C9.26456 17.0405 10.0359 16.4689 10.9093 16.4689H6.65929C5.78591 16.4689 5.01241 17.0405 4.77016 17.8501L1.68039 27.7165C1.29364 29 2.24989 30.2814 3.59077 30.2814H7.8408C6.49992 30.2814 5.54579 28.9979 5.93041 27.7165Z" fill="white"/>
<path d="M29.7521 26.2439L32.3658 17.8501C32.6208 17.0426 33.3858 16.4689 34.2571 16.4689H30.0071C29.1358 16.4689 28.3708 17.0426 28.1158 17.8501L25.502 26.2439V29.6439C25.842 30.0264 26.3733 30.2814 26.947 30.2814H31.1971C30.6233 30.2814 30.0921 30.0264 29.7521 29.6439V26.2439Z" fill="white"/>
<path d="M36.5984 17.0001H14.3622C13.1191 17.0001 11.9567 16.4178 11.2576 15.4425C10.601 14.5266 10.4288 13.394 10.788 12.3378L14.1327 2.47139C14.6342 0.994506 16.0707 0 17.707 0H27.2696V3.18752H17.707C17.4137 3.18752 17.2034 3.34477 17.1524 3.49565L13.8076 13.3642C13.7949 13.4003 13.7694 13.4768 13.848 13.5852C13.8862 13.6383 14.0371 13.8126 14.3622 13.8126H36.5984C36.9235 13.8126 37.0744 13.6383 37.1126 13.5852C37.1912 13.4747 37.1657 13.3982 37.153 13.3642L33.8082 3.49777C33.7572 3.34689 33.5447 3.18752 33.2536 3.18752H31.3241V0H33.2536C34.892 0 36.3285 0.994505 36.8279 2.47351L40.1726 12.3378C40.5296 13.394 40.3596 14.5266 39.703 15.4425C39.0039 16.4178 37.8415 17.0001 36.5984 17.0001Z" fill="#2F3130"/>
<path d="M24.0356 31.8752H3.59086C2.44123 31.8752 1.39147 31.3482 0.709343 30.4281C0.027214 29.5101 -0.174662 28.3541 0.154714 27.2576L3.24873 17.3763C3.69073 15.91 5.09537 14.8751 6.6615 14.8751H20.9671C22.5311 14.8751 23.9357 15.91 24.382 17.3911L27.4654 27.2427C27.8011 28.3541 27.5992 29.5101 26.9192 30.4302C26.2371 31.3482 25.1852 31.8752 24.0356 31.8752ZM6.6615 18.0626C6.49575 18.0626 6.34062 18.1689 6.29812 18.3113L3.20411 28.1904C3.15948 28.3328 3.21473 28.4539 3.26786 28.5262C3.32098 28.5984 3.42086 28.6877 3.59086 28.6877H24.0356C24.2056 28.6877 24.3055 28.6006 24.3607 28.5283C24.4138 28.4561 24.467 28.3371 24.4202 28.1777L21.3347 18.3261C21.288 18.1689 21.1307 18.0626 20.9671 18.0626H6.6615Z" fill="#2F3130"/>
<path d="M47.3898 31.8752H26.9472C25.9357 31.8752 24.9751 31.4481 24.3121 30.7043L26.6922 28.5836C26.7283 28.6261 26.8282 28.6877 26.9472 28.6877H47.3898C47.5598 28.6877 47.6597 28.6027 47.7128 28.5305C47.768 28.4561 47.8233 28.3328 47.7723 28.1607L44.6974 18.3261C44.6506 18.1753 44.4934 18.0626 44.3276 18.0626H30.0051C29.8393 18.0626 29.6842 18.1753 29.6353 18.3283L27.0215 26.7157L23.9785 25.7701L26.5923 17.3784C27.0577 15.9015 28.4602 14.8751 30.0072 14.8751H44.3298C45.8768 14.8751 47.2793 15.9015 47.7404 17.3741L50.8238 27.2363C51.1574 28.3647 50.9513 29.5228 50.267 30.4387C49.5849 31.3525 48.5352 31.8752 47.3898 31.8752Z" fill="#2F3130"/>
<path d="M20.0877 11.6557L17.0596 10.6548L18.8127 5.34226C19.0295 4.692 19.6393 4.25 20.3278 4.25H28.1373V7.43752H21.4817L20.0877 11.6557Z" fill="#2F3130"/>
<path d="M9.46275 26.5309L6.4346 25.53L8.18774 20.2175C8.40449 19.5672 9.01437 19.1252 9.70287 19.1252H17.5123V22.3128H10.8568L9.46275 26.5309Z" fill="#2F3130"/>
<path d="M32.8372 26.5309L29.809 25.53L31.5622 20.2175C31.7789 19.5672 32.3888 19.1252 33.0773 19.1252H40.8867V22.3128H34.2312L32.8372 26.5309Z" fill="#2F3130"/>
</svg>
