<svg width="60" height="45" viewBox="0 0 60 45" fill="none" xmlns="http://www.w3.org/2000/svg">
<path d="M42.1875 31.4061C44.5175 31.4061 46.4062 29.5173 46.4062 27.1874C46.4062 24.8574 44.5175 22.9686 42.1875 22.9686C39.8575 22.9686 37.9688 24.8574 37.9688 27.1874C37.9688 29.5173 39.8575 31.4061 42.1875 31.4061Z" fill="white"/>
<path d="M51.0938 45.0001V40.7814C51.0938 38.7095 49.4156 37.0314 47.3438 37.0314H37.0313C34.9594 37.0314 33.2812 38.7095 33.2812 40.7814V45.0001H51.0938Z" fill="white"/>
<path d="M15 34.2189C16.2944 34.2189 17.3438 33.1695 17.3438 31.8751C17.3438 30.5807 16.2944 29.5314 15 29.5314C13.7056 29.5314 12.6562 30.5807 12.6562 31.8751C12.6562 33.1695 13.7056 34.2189 15 34.2189Z" fill="white"/>
<path d="M21.0937 45.0001V42.6564C21.0937 40.5845 19.4156 38.9064 17.3437 38.9064H12.6562C10.5844 38.9064 8.90625 40.5845 8.90625 42.6564V45.0001H21.0937Z" fill="white"/>
<path d="M8.90625 5.15625V19.2188C8.90625 21.2812 10.5938 22.9688 12.6562 22.9688H22.5L28.5938 28.5938V22.9688H30.4688C32.5312 22.9688 34.2188 21.2812 34.2188 19.2188V5.15625C34.2188 3.09375 32.5312 1.40625 30.4688 1.40625H12.6562C10.5938 1.40625 8.90625 3.09375 8.90625 5.15625Z" fill="#CF91A4"/>
<path d="M42.1875 27.1874C42.1875 25.6293 43.0406 24.2849 44.2969 23.5536C43.6744 23.1918 42.96 22.9686 42.1875 22.9686C39.8569 22.9686 37.9688 24.8568 37.9688 27.1874C37.9688 29.518 39.8569 31.4061 42.1875 31.4061C42.96 31.4061 43.6744 31.183 44.2969 30.8211C43.0406 30.0899 42.1875 28.7455 42.1875 27.1874Z" fill="white"/>
<path d="M41.25 37.0314H37.0312C34.9594 37.0314 33.2812 38.7095 33.2812 40.7814V45.0001H37.5V40.7814C37.5 38.7095 39.1781 37.0314 41.25 37.0314Z" fill="white"/>
<path d="M16.875 31.8751C16.875 31.5189 16.9669 31.1908 17.1094 30.8889C16.7344 30.092 15.9375 29.5314 15 29.5314C13.7063 29.5314 12.6562 30.5814 12.6562 31.8751C12.6562 33.1689 13.7063 34.2189 15 34.2189C15.9375 34.2189 16.7344 33.6583 17.1094 32.8614C16.9669 32.5595 16.875 32.2314 16.875 31.8751Z" fill="white"/>
<path d="M16.875 38.9064H12.6563C10.5844 38.9064 8.90625 40.5845 8.90625 42.6564V45.0001H13.125V42.6564C13.125 40.5845 14.8031 38.9064 16.875 38.9064Z" fill="white"/>
<path d="M26.7187 22.9686H22.5L28.5937 28.5936V24.6993L26.7187 22.9686Z" fill="#9E2349"/>
<path d="M13.125 19.2188V5.15625C13.125 3.09375 14.8125 1.40625 16.875 1.40625H12.6563C10.5938 1.40625 8.90625 3.09375 8.90625 5.15625V19.2188C8.90625 21.2813 10.5938 22.9688 12.6563 22.9688H16.875C14.8125 22.9688 13.125 21.2813 13.125 19.2188Z" fill="#9E2349"/>
<path d="M42.1875 32.8125C39.0862 32.8125 36.5625 30.2887 36.5625 27.1875C36.5625 24.0862 39.0862 21.5625 42.1875 21.5625C45.2887 21.5625 47.8125 24.0862 47.8125 27.1875C47.8125 30.2887 45.2887 32.8125 42.1875 32.8125ZM42.1875 24.375C40.6369 24.375 39.375 25.6369 39.375 27.1875C39.375 28.7381 40.6369 30 42.1875 30C43.7381 30 45 28.7381 45 27.1875C45 25.6369 43.7381 24.375 42.1875 24.375Z" fill="#2F3130"/>
<path d="M52.5 44.9999H49.6875V40.7811C49.6875 39.4893 48.6356 38.4374 47.3437 38.4374H37.0312C35.7394 38.4374 34.6875 39.4893 34.6875 40.7811V44.9999H31.875V40.7811C31.875 37.9368 34.1869 35.6249 37.0312 35.6249H47.3437C50.1881 35.6249 52.5 37.9368 52.5 40.7811V44.9999Z" fill="#2F3130"/>
<path d="M28.5938 30C28.2469 30 27.9056 29.8725 27.6394 29.6269L21.9506 24.375H12.6563C9.81188 24.375 7.5 22.0631 7.5 19.2188V5.15625C7.5 2.31188 9.81188 0 12.6563 0H30.4688C33.3131 0 35.625 2.31188 35.625 5.15625V19.2188C35.625 22.0631 33.3131 24.375 30.4688 24.375H30V28.5938C30 29.1525 29.6681 29.6569 29.1581 29.8838C28.9763 29.9606 28.785 30 28.5938 30ZM12.6563 2.8125C11.3644 2.8125 10.3125 3.86438 10.3125 5.15625V19.2188C10.3125 20.5106 11.3644 21.5625 12.6563 21.5625H22.5C22.8525 21.5625 23.1938 21.6956 23.4544 21.9356L27.1875 25.3819V22.9688C27.1875 22.1925 27.8175 21.5625 28.5938 21.5625H30.4688C31.7606 21.5625 32.8125 20.5106 32.8125 19.2188V5.15625C32.8125 3.86438 31.7606 2.8125 30.4688 2.8125H12.6563Z" fill="#2F3130"/>
<path d="M22.9687 16.4062H20.1562V14.5706C20.1562 12.8081 21.0712 11.1244 22.6687 9.9525C23.1581 9.59437 23.4375 9.04313 23.4375 8.4375C23.4375 7.4025 22.5975 6.5625 21.5625 6.5625C20.5275 6.5625 19.6875 7.4025 19.6875 8.4375V9.84375H16.875V8.4375C16.875 5.85188 18.9769 3.75 21.5625 3.75C24.1481 3.75 26.25 5.85188 26.25 8.4375C26.25 9.92625 25.5319 11.34 24.3319 12.2212C23.8237 12.5925 22.9687 13.395 22.9687 14.5706V16.4062Z" fill="#2F3130"/>
<path d="M15 35.6249C12.9319 35.6249 11.25 33.943 11.25 31.8749C11.25 29.8068 12.9319 28.1249 15 28.1249C17.0681 28.1249 18.75 29.8068 18.75 31.8749C18.75 33.943 17.0681 35.6249 15 35.6249ZM15 30.9374C14.4844 30.9374 14.0625 31.3593 14.0625 31.8749C14.0625 32.3905 14.4844 32.8124 15 32.8124C15.5156 32.8124 15.9375 32.3905 15.9375 31.8749C15.9375 31.3593 15.5156 30.9374 15 30.9374Z" fill="#2F3130"/>
<path d="M22.5 44.9999H19.6875V42.6561C19.6875 41.3643 18.6356 40.3124 17.3438 40.3124H12.6563C11.3644 40.3124 10.3125 41.3643 10.3125 42.6561V44.9999H7.5V42.6561C7.5 39.8118 9.81188 37.4999 12.6563 37.4999H17.3438C20.1881 37.4999 22.5 39.8118 22.5 42.6561V44.9999Z" fill="#2F3130"/>
<path d="M21.5625 20.6251C22.3392 20.6251 22.9688 19.9955 22.9688 19.2189C22.9688 18.4422 22.3392 17.8126 21.5625 17.8126C20.7859 17.8126 20.1562 18.4422 20.1562 19.2189C20.1562 19.9955 20.7859 20.6251 21.5625 20.6251Z" fill="#2F3130"/>
<path d="M0 42.1876H60V45.0001H0V42.1876Z" fill="#2F3130"/>
</svg>
