<svg width="50" height="50" viewBox="0 0 50 50" fill="none" xmlns="http://www.w3.org/2000/svg">
<path d="M44.3879 44.3857H1.53076L2.6328 39.9571C3.10219 38.1 4.46954 36.6306 6.26545 36.0388L14.4695 33.3041C15.6124 32.8347 16.2655 31.8143 16.6532 30.7122C16.7961 30.3041 16.8981 29.8959 16.9797 29.5081C17.0206 29.3245 17.0614 29.1408 17.0818 28.9775C17.2246 28.0184 17.2246 27.1816 17.2246 26.8347C15.8981 25.7326 14.2655 23.8347 14.2655 22.2224C14.2655 20.6102 13.3471 20.3653 13.3471 20.3653C13.3471 20.3653 12.4287 18.0592 12.4287 16.6714C12.4287 16.6714 12.4287 16.651 12.4491 16.6306C12.5104 16.4469 12.8165 15.7531 13.4287 15.7531C13.4287 15.7531 13.4287 15.0388 13.4287 13.9979C13.4287 13.9775 13.4287 13.9775 13.4287 13.9571C13.4695 12.9775 13.5308 11.7326 13.5308 10.202C13.5308 8.97754 14.1022 7.48775 15.0818 6.09999C15.4491 5.8755 15.7553 5.79387 15.7553 5.58979C15.7553 5.44693 15.7961 5.28367 15.8573 5.09999C17.5716 3.1204 20.1022 1.52856 22.9593 1.52856C25.8165 1.52856 28.3471 3.1204 30.0614 5.09999C30.1226 5.28367 30.1634 5.44693 30.1634 5.58979C30.1634 5.79387 30.4695 5.8755 30.8369 6.09999C31.8165 7.48775 32.3879 8.97754 32.3879 10.202C32.3879 11.7326 32.4491 12.9775 32.4899 13.9571V13.9979V15.7531C33.1022 15.7531 33.4083 16.4469 33.4695 16.6306C33.4899 16.651 33.4899 16.6714 33.4899 16.6714C33.4899 18.0592 32.5716 20.3653 32.5716 20.3653C32.5716 20.3653 31.6532 20.6102 31.6532 22.2224C31.6532 23.8347 30.0206 25.7326 28.694 26.8347C28.694 27.1612 28.694 27.9979 28.8369 28.9775C28.8573 29.1408 28.8981 29.3245 28.9389 29.5081C29.0206 29.9163 29.1226 30.3041 29.2655 30.7122C29.6532 31.8143 30.3063 32.8347 31.4491 33.3041L39.6532 36.0388C41.4491 36.6306 42.8165 38.1 43.2859 39.9571L44.3879 44.3857Z" fill="white"/>
<path d="M37.245 48.4674C37.245 48.4674 48.4695 43.7306 48.4695 34.2551C48.4695 30.4653 48.4695 25.7266 48.4695 25.7266L37.245 21.9368L26.0205 25.7266V34.2551C26.0205 43.7306 37.245 48.4674 37.245 48.4674Z" fill="#CF91A4"/>
<path d="M21.3063 26.8347C21.3063 27.1816 21.3063 28.0184 21.1634 28.9775C21.143 29.1408 21.1022 29.3245 21.0614 29.5082C20.9797 29.8959 20.8777 30.3041 20.7348 30.7122C20.3471 31.8143 19.694 32.8347 18.5512 33.3041L10.3471 36.0388C8.55117 36.6306 7.18382 38.1 6.71443 39.9571L5.61239 44.3857H1.53076L2.6328 39.9571C3.10219 38.1 4.46954 36.6306 6.26545 36.0388L14.4695 33.3041C15.6124 32.8347 16.2655 31.8143 16.6532 30.7122C16.7961 30.3041 16.8981 29.8959 16.9797 29.5082C17.0206 29.3245 17.0614 29.1408 17.0818 28.9775C17.2246 28.0184 17.2246 27.1816 17.2246 26.8347C15.8981 25.7326 14.2655 23.8347 14.2655 22.2224C14.2655 20.6102 13.3471 20.3653 13.3471 20.3653C13.3471 20.3653 12.4287 18.0592 12.4287 16.6714C12.4287 16.6714 12.4287 16.651 12.4491 16.6306C12.5104 16.4469 12.8165 15.7531 13.4287 15.7531C13.4287 15.7531 13.4287 15.0388 13.4287 13.9979C13.4287 13.9775 13.4287 13.9775 13.4287 13.9571C13.4695 12.9775 13.5308 11.7326 13.5308 10.202C13.5308 8.97754 14.1022 7.48775 15.0818 6.09999C15.4491 5.8755 15.7552 5.79387 15.7552 5.58979C15.7552 5.44693 15.7961 5.28367 15.8573 5.09999C17.5716 3.1204 20.1022 1.52856 22.9593 1.52856C23.6532 1.52856 24.3471 1.6306 25.0001 1.81428C23.0001 2.32448 21.2246 3.6102 19.9389 5.09999C19.8777 5.28367 19.8369 5.44693 19.8369 5.58979C19.8369 5.79387 19.5308 5.8755 19.1634 6.09999C18.1838 7.48775 17.6124 8.97754 17.6124 10.202C17.6124 11.7326 17.5512 12.9775 17.5103 13.9571V13.9979V15.7531C16.8981 15.7531 16.592 16.4469 16.5308 16.6306C16.5104 16.651 16.5104 16.6714 16.5104 16.6714C16.5104 18.0592 17.4287 20.3653 17.4287 20.3653C17.4287 20.3653 18.3471 20.6102 18.3471 22.2224C18.3471 23.8347 19.9797 25.7326 21.3063 26.8347Z" fill="#E4E4E4"/>
<path d="M39.2858 47.4062C38.0817 48.1204 37.245 48.4674 37.245 48.4674C37.245 48.4674 26.0205 43.7327 26.0205 34.2633C26.0205 28.5694 26.0205 25.7327 26.0205 25.7327L37.245 21.9368L39.2858 22.6306L30.1021 25.7327V34.2633C30.1021 41.1613 36.0613 45.549 39.2858 47.4062Z" fill="#9E2349"/>
<path d="M23 45.9163H1.53062C1.06123 45.9163 0.614293 45.7 0.324497 45.3286C0.0326601 44.9571 -0.06734 44.4735 0.0449049 44.0163L1.14695 39.5878C1.7449 37.2143 3.4796 35.3449 5.78572 34.5857L13.9837 31.8531C14.9286 31.4571 15.5735 29.8449 15.6796 27.5122C14.5776 26.4837 12.7347 24.4306 12.7347 22.2245C12.7347 21.9714 12.698 21.8163 12.6714 21.7408C12.3347 21.5755 12.0673 21.2898 11.9265 20.9347C11.8204 20.6714 10.898 18.3082 10.898 16.6735C10.898 16.551 10.9122 16.4286 10.9408 16.3082C11.0776 15.749 11.3878 15.1878 11.8449 14.7878C11.8551 14.6061 11.8653 14.4102 11.8755 14.202C11.9286 13.2 12 11.8653 12 10.2041C12 6.1898 16.7061 0 22.9592 0C28.2327 0 30.9184 2.76939 31.5469 4.74082C32.8143 5.48776 34.0204 6.81633 34.0204 10.2041V14.8061C34.4571 15.1776 34.7735 15.6837 34.9408 16.1878C34.9939 16.3449 35.0204 16.5082 35.0204 16.6735L33.3571 16.7184L32.0388 17.1592C32.049 17.1592 32.2367 17.2878 32.4898 17.2878C31.6449 17.2878 30.9592 16.602 30.9592 15.7571V10.2061C30.9592 7.85714 30.3082 7.52857 29.8755 7.31224C29.5367 7.13877 28.6327 6.68367 28.6327 5.5898C28.5551 5.26122 27.1531 3.05918 22.9592 3.05918C18.4755 3.05918 15.0612 7.82041 15.0612 10.202C15.0612 11.9306 14.9898 13.3184 14.9327 14.3612C14.902 14.9408 14.8776 15.4061 14.8776 15.7531C14.8776 16.3653 14.5184 16.8939 13.998 17.1388C14.098 17.802 14.3633 18.6796 14.5959 19.3388C15.2122 19.8367 15.7959 20.7429 15.7959 22.2224C15.7959 23.0408 16.8306 24.5184 18.2041 25.6571C18.5531 25.949 18.7571 26.3796 18.7571 26.8347C18.7571 30.9286 17.4429 33.7286 15.0571 34.7184L6.75307 37.4918C5.44082 37.9245 4.45919 38.9857 4.12041 40.3327L3.4898 42.8551H23V45.9163ZM12.949 21.8429H12.9531C12.951 21.8449 12.949 21.8429 12.949 21.8429Z" fill="#2F3130"/>
<path d="M37.2449 49.9979C37.0408 49.9979 36.8408 49.9571 36.649 49.8775C36.1531 49.6673 24.4898 44.6265 24.4898 34.2551V25.7265C24.4898 25.0694 24.9082 24.4877 25.5306 24.2775L36.7551 20.4877C37.0735 20.3796 37.4163 20.3796 37.7347 20.4877L48.9592 24.2775C49.5816 24.4877 50 25.0714 50 25.7265V34.2551C50 44.6265 38.3367 49.6694 37.8408 49.8775C37.649 49.9571 37.449 49.9979 37.2449 49.9979ZM27.551 26.8265V34.2551C27.551 41.4306 35.0469 45.6857 37.2429 46.7775C39.4367 45.6796 46.9388 41.4041 46.9388 34.2551V26.8265L37.2449 23.553L27.551 26.8265Z" fill="#2F3130"/>
<path d="M36.2248 39.7937C36.1962 39.7937 36.1697 39.7937 36.1411 39.7916C35.7044 39.7671 35.3024 39.559 35.0289 39.2202L30.9473 34.1182L33.3391 32.2039L36.3534 35.9712L42.286 30.0386L44.4513 32.2039L37.3085 39.3467C37.0207 39.6324 36.6289 39.7937 36.2248 39.7937Z" fill="#2F3130"/>
</svg>
