<svg width="50" height="50" viewBox="0 0 50 50" fill="none" xmlns="http://www.w3.org/2000/svg">
<path d="M1.55957 32.7471H32.2275V42.1034H1.55957V32.7471Z" fill="white"/>
<path d="M11.4355 1.55933H21.8314V32.747H11.4355V1.55933Z" fill="white"/>
<path d="M46.8252 35.4354L45.376 28.8715C45.0434 27.3661 43.8769 26.1873 42.3758 25.8421L36.7662 24.553C36.1798 24.4179 35.5706 24.4179 34.9843 24.553L29.3539 25.8442C27.8527 26.1893 26.6842 27.3682 26.3515 28.8736L24.9023 35.4354C24.9023 38.6748 25.9419 42.6835 28.5201 45.3698C30.2375 47.1599 32.639 48.3617 35.8721 48.3617C39.1073 48.3617 41.5088 47.1495 43.2241 45.3698C45.7856 42.7126 46.819 38.7892 46.819 35.7369C46.8252 35.6662 46.8252 35.4354 46.8252 35.4354Z" fill="#CF91A4"/>
<path d="M1.55957 32.7471H6.23772V42.1034H1.55957V32.7471Z" fill="#DCDCDC"/>
<path d="M11.4355 1.55933H16.1136V32.747H11.4355V1.55933Z" fill="#DCDCDC"/>
<path d="M33.2022 45.3698C30.622 42.6835 29.5845 38.6748 29.5845 35.4354L31.0337 28.8736C31.3663 27.3682 32.5348 26.1873 34.036 25.8442L38.2151 24.8857L36.7701 24.553C36.1838 24.4179 35.5746 24.4179 34.9882 24.553L29.3578 25.8442C27.8567 26.1893 26.6882 27.3682 26.3555 28.8736L24.9063 35.4354C24.9063 38.6748 25.9459 42.6835 28.5241 45.3698C30.2415 47.1599 32.6429 48.3617 35.8761 48.3617C36.7119 48.3617 37.4874 48.2744 38.2131 48.1247C36.1297 47.6943 34.4768 46.6963 33.2022 45.3698Z" fill="#9E2349"/>
<path d="M40.5984 39.5066C39.7376 39.5066 39.039 38.808 39.039 37.9472C39.039 37.0864 39.7376 36.3878 40.5984 36.3878C41.4592 36.3878 42.1578 37.0885 42.1578 37.9472C42.1578 38.8059 41.4592 39.5066 40.5984 39.5066Z" fill="#2F3130"/>
<path d="M31.3831 39.3777C30.5598 39.3777 29.8882 38.7082 29.8882 37.8828C29.8882 37.0594 30.5577 36.3878 31.3831 36.3878C32.2086 36.3878 32.8781 37.0594 32.8781 37.8828C32.876 38.7082 32.2065 39.3777 31.3831 39.3777Z" fill="#2F3130"/>
<path d="M35.8783 49.921C32.5121 49.921 29.5804 48.7214 27.4014 46.4488C24.8628 43.8062 23.3491 39.6894 23.3491 35.4354C23.3491 35.3044 23.3658 35.1797 23.3928 35.0591L24.8316 28.5367C25.2932 26.4513 26.9315 24.7962 29.0086 24.3222L34.637 23.031C35.45 22.8481 36.3045 22.8481 37.1154 23.031L42.725 24.3222C44.8 24.7983 46.4363 26.4513 46.8979 28.5325L48.345 35.0986C48.37 35.2088 48.3825 35.319 48.3825 35.4333V35.7348C48.3825 38.8952 47.3242 43.3675 44.353 46.4488C42.1657 48.7214 39.2341 49.921 35.8783 49.921ZM26.4679 35.5997C26.5053 38.2839 27.3578 41.9016 29.649 44.2885C31.25 45.9581 33.3437 46.8023 35.8762 46.8023C38.4024 46.8023 40.4982 45.956 42.1054 44.2865C44.4341 41.8725 45.2637 38.286 45.2637 35.7369V35.6059L43.8519 29.2062C43.6502 28.2955 42.935 27.5699 42.0264 27.3599L36.4168 26.0708C36.0633 25.9939 35.6891 25.9918 35.3335 26.0729L29.7052 27.364C28.7945 27.5719 28.0793 28.2955 27.8776 29.2103L26.4679 35.5997Z" fill="#2F3130"/>
<path d="M35.8784 45.7544C34.3357 45.7544 32.8865 45.1535 31.7949 44.0599L34.0051 41.858C35.0031 42.8602 36.7538 42.8602 37.7539 41.858L39.964 44.0599C38.8704 45.1535 37.4212 45.7544 35.8784 45.7544Z" fill="#2F3130"/>
<path d="M48.1308 37.5708L46.8833 36.6352C46.8521 36.6144 43.1345 33.953 35.8761 33.953C28.6136 33.953 24.871 36.6164 24.8336 36.6435L23.5799 37.5541L21.7315 35.0674L22.9727 34.1401C23.1536 34.005 27.4929 30.8342 35.874 30.8342C44.2552 30.8342 48.5737 34.005 48.7525 34.1422L50 35.0778L48.1308 37.5708Z" fill="#2F3130"/>
<path d="M20.7918 43.6628H1.55939C0.698604 43.6628 0 42.9642 0 42.1034V32.7471C0 31.8863 0.698604 31.1877 1.55939 31.1877H18.7126V34.3065H3.11877V40.5441H20.7918V43.6628Z" fill="#2F3130"/>
<path d="M12.9947 34.3064H9.87598V1.55938C9.87598 0.698604 10.5746 0 11.4354 0H21.8313C22.692 0 23.3906 0.698604 23.3906 1.55938V28.5887H20.2719V3.11877H12.9947V34.3064Z" fill="#2F3130"/>
<path d="M7.27698 32.7471H4.1582V7.27716C4.1582 6.41638 4.85681 5.71777 5.71759 5.71777H11.4353V8.83654H7.27698V32.7471Z" fill="#2F3130"/>
<path d="M5.71774 11.9553H11.4355V15.0741H5.71774V11.9553Z" fill="#2F3130"/>
<path d="M5.71774 18.1929H11.4355V21.3117H5.71774V18.1929Z" fill="#2F3130"/>
<path d="M5.71774 24.4304H11.4355V27.5492H5.71774V24.4304Z" fill="#2F3130"/>
<path d="M16.6333 24.4304H23.3906V27.5492H16.6333V24.4304Z" fill="#2F3130"/>
<path d="M16.6333 18.1929H23.3906V21.3117H16.6333V18.1929Z" fill="#2F3130"/>
<path d="M16.6333 11.9553H23.3906V15.0741H16.6333V11.9553Z" fill="#2F3130"/>
<path d="M16.6333 5.71777H23.3906V8.83655H16.6333V5.71777Z" fill="#2F3130"/>
</svg>
