<svg width="50" height="49" viewBox="0 0 50 49" fill="none" xmlns="http://www.w3.org/2000/svg">
<path d="M24.9998 8.85417C27.0134 8.85417 28.6457 7.22188 28.6457 5.20834C28.6457 3.1948 27.0134 1.5625 24.9998 1.5625C22.9863 1.5625 21.354 3.1948 21.354 5.20834C21.354 7.22188 22.9863 8.85417 24.9998 8.85417Z" fill="white"/>
<path d="M16.146 19.2708V18.2292C16.146 15.9271 18.0106 14.0625 20.3127 14.0625H29.6877C31.9898 14.0625 33.8543 15.9271 33.8543 18.2292V19.2708H16.146Z" fill="#CF91A4"/>
<path d="M39.5833 38.0208C41.5969 38.0208 43.2292 36.3885 43.2292 34.375C43.2292 32.3614 41.5969 30.7291 39.5833 30.7291C37.5698 30.7291 35.9375 32.3614 35.9375 34.375C35.9375 36.3885 37.5698 38.0208 39.5833 38.0208Z" fill="white"/>
<path d="M30.729 48.4376V47.3959C30.729 45.0938 32.5936 43.2292 34.8957 43.2292H44.2707C46.5728 43.2292 48.4373 45.0938 48.4373 47.3959V48.4376H30.729Z" fill="#CF91A4"/>
<path d="M10.4168 38.0208C12.4304 38.0208 14.0627 36.3885 14.0627 34.375C14.0627 32.3614 12.4304 30.7291 10.4168 30.7291C8.40329 30.7291 6.771 32.3614 6.771 34.375C6.771 36.3885 8.40329 38.0208 10.4168 38.0208Z" fill="white"/>
<path d="M1.5625 48.4376V47.3959C1.5625 45.0938 3.42708 43.2292 5.72917 43.2292H15.1042C17.4063 43.2292 19.2708 45.0938 19.2708 47.3959V48.4376H1.5625Z" fill="#CF91A4"/>
<path d="M9.89584 43.2292H5.72917C3.42708 43.2292 1.5625 45.0938 1.5625 47.3959V48.4376H5.72917V47.3959C5.72917 45.0938 7.59375 43.2292 9.89584 43.2292Z" fill="#9E2349"/>
<path d="M39.0623 43.2292H34.8957C32.5936 43.2292 30.729 45.0938 30.729 47.3959V48.4376H34.8957V47.3959C34.8957 45.0938 36.7602 43.2292 39.0623 43.2292Z" fill="#9E2349"/>
<path d="M24.4793 14.0625H20.3127C18.0106 14.0625 16.146 15.9271 16.146 18.2292V19.2708H20.3127V18.2292C20.3127 15.9271 22.1772 14.0625 24.4793 14.0625Z" fill="#9E2349"/>
<path d="M25.5207 5.20834C25.5207 3.97084 26.1394 2.88125 27.0832 2.22292C26.4915 1.81042 25.7748 1.5625 24.9998 1.5625C22.9873 1.5625 21.354 3.19583 21.354 5.20834C21.354 7.22084 22.9873 8.85417 24.9998 8.85417C25.7748 8.85417 26.4915 8.60834 27.0832 8.19376C26.1394 7.53542 25.5207 6.44584 25.5207 5.20834Z" fill="white"/>
<path d="M10.9377 34.375C10.9377 33.1375 11.5564 32.0479 12.5002 31.3895C11.9085 30.977 11.1918 30.7291 10.4168 30.7291C8.40433 30.7291 6.771 32.3625 6.771 34.375C6.771 36.3875 8.40433 38.0208 10.4168 38.0208C11.1918 38.0208 11.9085 37.775 12.5002 37.3604C11.5564 36.702 10.9377 35.6125 10.9377 34.375Z" fill="white"/>
<path d="M40.1042 34.375C40.1042 33.1375 40.7229 32.0479 41.6667 31.3895C41.075 30.977 40.3583 30.7291 39.5833 30.7291C37.5708 30.7291 35.9375 32.3625 35.9375 34.375C35.9375 36.3875 37.5708 38.0208 39.5833 38.0208C40.3583 38.0208 41.075 37.775 41.6667 37.3604C40.7229 36.702 40.1042 35.6125 40.1042 34.375Z" fill="white"/>
<path d="M24.9998 10.4167C22.129 10.4167 19.7915 8.07917 19.7915 5.20833C19.7915 2.3375 22.129 0 24.9998 0C27.8707 0 30.2082 2.3375 30.2082 5.20833C30.2082 8.07917 27.8707 10.4167 24.9998 10.4167ZM24.9998 3.125C23.8519 3.125 22.9165 4.06042 22.9165 5.20833C22.9165 6.35625 23.8519 7.29167 24.9998 7.29167C26.1478 7.29167 27.0832 6.35625 27.0832 5.20833C27.0832 4.06042 26.1478 3.125 24.9998 3.125Z" fill="#2F3130"/>
<path d="M35.4168 19.271H32.2918V18.2293C32.2918 16.7939 31.1231 15.6251 29.6877 15.6251H20.3127C18.8772 15.6251 17.7085 16.7939 17.7085 18.2293V19.271H14.5835V18.2293C14.5835 15.0689 17.1522 12.5001 20.3127 12.5001H29.6877C32.8481 12.5001 35.4168 15.0689 35.4168 18.2293V19.271Z" fill="#2F3130"/>
<path d="M39.5833 39.5834C36.7125 39.5834 34.375 37.2459 34.375 34.3751C34.375 31.5042 36.7125 29.1667 39.5833 29.1667C42.4542 29.1667 44.7917 31.5042 44.7917 34.3751C44.7917 37.2459 42.4542 39.5834 39.5833 39.5834ZM39.5833 32.2917C38.4354 32.2917 37.5 33.2272 37.5 34.3751C37.5 35.523 38.4354 36.4584 39.5833 36.4584C40.7313 36.4584 41.6667 35.523 41.6667 34.3751C41.6667 33.2272 40.7313 32.2917 39.5833 32.2917Z" fill="#2F3130"/>
<path d="M49.9998 48.4375H46.8748V47.3958C46.8748 45.9604 45.7061 44.7916 44.2707 44.7916H34.8957C33.4603 44.7916 32.2915 45.9604 32.2915 47.3958V48.4375H29.1665V47.3958C29.1665 44.2354 31.7353 41.6666 34.8957 41.6666H44.2707C47.4311 41.6666 49.9998 44.2354 49.9998 47.3958V48.4375Z" fill="#2F3130"/>
<path d="M10.4168 39.5834C7.546 39.5834 5.2085 37.2459 5.2085 34.3751C5.2085 31.5042 7.546 29.1667 10.4168 29.1667C13.2877 29.1667 15.6252 31.5042 15.6252 34.3751C15.6252 37.2459 13.2877 39.5834 10.4168 39.5834ZM10.4168 32.2917C9.26891 32.2917 8.3335 33.2272 8.3335 34.3751C8.3335 35.523 9.26891 36.4584 10.4168 36.4584C11.5647 36.4584 12.5002 35.523 12.5002 34.3751C12.5002 33.2272 11.5647 32.2917 10.4168 32.2917Z" fill="#2F3130"/>
<path d="M20.8333 48.4375H17.7083V47.3958C17.7083 45.9604 16.5396 44.7916 15.1042 44.7916H5.72917C4.29375 44.7916 3.125 45.9604 3.125 47.3958V48.4375H0V47.3958C0 44.2354 2.56875 41.6666 5.72917 41.6666H15.1042C18.2646 41.6666 20.8333 44.2354 20.8333 47.3958V48.4375Z" fill="#2F3130"/>
<path d="M7.2915 25.0251H4.1665C4.1665 16.9501 8.89984 9.53137 16.2248 6.12512L17.5436 8.95846C11.3144 11.8543 7.2915 18.1605 7.2915 25.0251Z" fill="#2F3130"/>
<path d="M45.8331 25.0251H42.7081C42.7081 18.1605 38.6852 11.8543 32.4581 8.95846L33.7768 6.12512C41.0998 9.53137 45.8331 16.9501 45.8331 25.0251Z" fill="#2F3130"/>
<path d="M25 45.8583C24.2625 45.8583 23.5375 45.8188 22.8208 45.7458L23.1458 42.6375C24.402 42.7688 25.7145 42.7604 26.9729 42.625L27.3145 45.7313C26.5562 45.8146 25.7833 45.8583 25 45.8583Z" fill="#2F3130"/>
</svg>
